<?xml version="1.0" encoding="UTF-8" standalone="no"?>
<!-- Created with Inkscape (http://www.inkscape.org/) -->

<svg
   xmlns:dc="http://purl.org/dc/elements/1.1/"
   xmlns:cc="http://creativecommons.org/ns#"
   xmlns:rdf="http://www.w3.org/1999/02/22-rdf-syntax-ns#"
   xmlns:svg="http://www.w3.org/2000/svg"
   xmlns="http://www.w3.org/2000/svg"
   xmlns:sodipodi="http://sodipodi.sourceforge.net/DTD/sodipodi-0.dtd"
   xmlns:inkscape="http://www.inkscape.org/namespaces/inkscape"
   version="1.1"
   id="svg2"
   width="1267.3146"
   height="1133.6732"
   viewBox="0 0 1267.3146 1133.6732"
   sodipodi:docname="logo.svg"
   inkscape:version="0.92.4 (5da689c313, 2019-01-14)"
   shape-rendering="crispEdges">
  <metadata
     id="metadata93">
    <rdf:RDF>
      <cc:Work
         rdf:about="">
        <dc:format>image/svg+xml</dc:format>
        <dc:type
           rdf:resource="http://purl.org/dc/dcmitype/StillImage" />
        <dc:title></dc:title>
      </cc:Work>
    </rdf:RDF>
  </metadata>
  <defs
     id="defs6">
    <pattern
       patternUnits="userSpaceOnUse"
       width="1134.3071"
       height="1067.1866"
       patternTransform="matrix(0.75000002,0,0,-0.75000002,574.635,1400.195)"
       id="pattern111">
      <path
         inkscape:connector-curvature="0"
         id="path109"
         d="M 0.49999999,133.76666 67.139998,133.75333 V 67.139998 L 133.78,66.766665 133.71333,0.49999999 h 866.22665 l 0.0666,66.63999801 h 66.6267 v 66.613332 l 67.1733,0.0133 -0.5333,599.75993 h -66.64 v 66.6267 h -66.6267 l -0.0666,66.63999 H 533.50003 l 0.04,199.89335 H 466.90001 V 1000.06 l -66.62669,-10e-5 v -66.62662 l -66.6267,-0.0133 -0.10667,-66.62669 H 133.71333 v -66.6266 l -66.573332,-0.0133 v -66.61331 l -66.63999801,-0.014 z"
         style="fill:none;stroke:#000000;stroke-width:1px;stroke-linecap:butt;stroke-linejoin:miter;stroke-opacity:1" />
    </pattern>
  </defs>
  <sodipodi:namedview
     id="namedview4"
     pagecolor="#ffffff"
     bordercolor="#000000"
     borderopacity="0.25"
     inkscape:showpageshadow="2"
     inkscape:pageopacity="0"
     inkscape:pagecheckerboard="true"
     inkscape:deskcolor="#d1d1d1"
     showgrid="false"
     inkscape:zoom="0.35355339"
     inkscape:cx="834.6556"
     inkscape:cy="634.74832"
     inkscape:window-width="1920"
     inkscape:window-height="1027"
     inkscape:window-x="-8"
     inkscape:window-y="-8"
     inkscape:window-maximized="1"
     inkscape:current-layer="g8"
     fit-margin-top="0"
     fit-margin-left="0"
     fit-margin-right="0"
     fit-margin-bottom="0"
     showborder="true" />
  <g
     id="g8"
     inkscape:groupmode="layer"
     inkscape:label="ink_ext_XXXXXX"
     transform="matrix(1.3333333,0,0,-1.3333333,-699.67598,1933.4133)">
    <path
       style="fill:#ffffff;fill-opacity:1;stroke:#000000;stroke-width:0.75px;stroke-linecap:butt;stroke-linejoin:miter;stroke-opacity:1"
       d="m 674.92,1399.82 h 649.67 l 0.05,-49.98 h 49.97 v -49.96 l 50.38,-0.01 -0.4,-449.81996 -49.98,-0.01 v -49.95997 l -50.02,-0.01 V 750.10054 H 974.76033 l 0.03,-149.91998 h -49.98001 v 49.96995 l -49.97002,8e-5 v 49.96995 l -49.97003,0.01 -0.08,49.96995 H 674.92 l 0.05,49.98 -49.98001,8e-5 v 49.97002 h -49.98 V 1299.87 h 49.98 v 49.97 l 49.93,0.01 z"
       id="path117"
       inkscape:connector-curvature="0" />
    <path
       inkscape:connector-curvature="0"
       id="path14"
       style="fill:#000000;fill-opacity:1;fill-rule:nonzero;stroke:none;stroke-width:0.1"
       d="m 974.79,650.14 v -49.96 h -49.98 v 49.96 h 49.98" />
    <path
       inkscape:connector-curvature="0"
       id="path16"
       style="fill:#000000;fill-opacity:1;fill-rule:nonzero;stroke:none;stroke-width:0.1"
       d="m 974.79,750.09 v -49.96 h -49.98 v 49.96 h 49.98" />
    <path
       inkscape:connector-curvature="0"
       id="path18"
       style="fill:#000000;fill-opacity:1;fill-rule:nonzero;stroke:none;stroke-width:0.1"
       d="m 974.79,700.12 v -49.97 h -49.98 v 49.97 h 49.98" />
    <path
       inkscape:connector-curvature="0"
       id="path20"
       style="fill:#000000;fill-opacity:1;fill-rule:nonzero;stroke:none;stroke-width:0.1"
       d="m 924.81,700.12 v -49.97 h -49.97 v 49.97 h 49.97" />
    <path
       inkscape:connector-curvature="0"
       id="path22"
       style="fill:#000000;fill-opacity:1;fill-rule:nonzero;stroke:none;stroke-width:0.1"
       d="m 874.84,750.09 v -49.96 h -49.97 v 49.96 h 49.97" />
    <path
       inkscape:connector-curvature="0"
       id="path24"
       style="fill:#000000;fill-opacity:1;fill-rule:nonzero;stroke:none;stroke-width:0.1"
       d="m 674.97,1349.84 v -49.96 h -49.98 v 49.96 h 49.98" />
    <path
       inkscape:connector-curvature="0"
       id="path26"
       style="fill:#000000;fill-opacity:1;fill-rule:nonzero;stroke:none;stroke-width:0.1"
       d="m 624.99,1099.92 v -49.97 h -49.98 v 49.97 h 49.98" />
    <path
       inkscape:connector-curvature="0"
       id="path28"
       style="fill:#000000;fill-opacity:1;fill-rule:nonzero;stroke:none;stroke-width:0.1"
       d="m 624.99,1049.94 v -49.96 h -49.98 v 49.96 h 49.98" />
    <path
       inkscape:connector-curvature="0"
       id="path30"
       style="fill:#000000;fill-opacity:1;fill-rule:nonzero;stroke:none;stroke-width:0.1"
       d="m 624.99,1149.89 v -49.96 h -49.98 v 49.96 h 49.98" />
    <path
       inkscape:connector-curvature="0"
       id="path32"
       style="fill:#000000;fill-opacity:1;fill-rule:nonzero;stroke:none;stroke-width:0.1"
       d="m 624.99,949.99 v -49.96 h -49.98 v 49.96 h 49.98" />
    <path
       inkscape:connector-curvature="0"
       id="path34"
       style="fill:#000000;fill-opacity:1;fill-rule:nonzero;stroke:none;stroke-width:0.1"
       d="M 624.99,999.97 V 950 h -49.98 v 49.97 h 49.98" />
    <path
       inkscape:connector-curvature="0"
       id="path36"
       style="fill:#000000;fill-opacity:1;fill-rule:nonzero;stroke:none;stroke-width:0.1"
       d="m 624.99,1199.87 v -49.97 h -49.98 v 49.97 h 49.98" />
    <path
       inkscape:connector-curvature="0"
       id="path38"
       style="fill:#000000;fill-opacity:1;fill-rule:nonzero;stroke:none;stroke-width:0.1"
       d="m 624.99,1249.89 v -49.96 h -49.98 v 49.96 h 49.98" />
    <path
       inkscape:connector-curvature="0"
       id="path40"
       style="fill:#000000;fill-opacity:1;fill-rule:nonzero;stroke:none;stroke-width:0.1"
       d="m 624.99,1299.87 v -49.97 h -49.98 v 49.97 h 49.98" />
    <path
       inkscape:connector-curvature="0"
       id="path42"
       style="fill:#000000;fill-opacity:1;fill-rule:nonzero;stroke:none;stroke-width:0.1"
       d="m 1424.99,1249.89 v -49.96 h -49.98 v 49.96 h 49.98" />
    <path
       inkscape:connector-curvature="0"
       id="path44"
       style="fill:#000000;fill-opacity:1;fill-rule:nonzero;stroke:none;stroke-width:0.1"
       d="m 1424.99,1299.87 v -49.97 h -49.98 v 49.97 h 49.98" />
    <path
       inkscape:connector-curvature="0"
       id="path46"
       style="fill:#000000;fill-opacity:1;fill-rule:nonzero;stroke:none;stroke-width:0.1"
       d="m 624.99,900.02 v -49.97 h -49.98 v 49.97 h 49.98" />
    <path
       inkscape:connector-curvature="0"
       id="path48"
       style="fill:#000000;fill-opacity:1;fill-rule:nonzero;stroke:none;stroke-width:0.1"
       d="m 674.97,850.04 v -49.96 h -49.98 v 49.96 h 49.98" />
    <path
       inkscape:connector-curvature="0"
       id="path50"
       style="fill:#000000;fill-opacity:1;fill-rule:nonzero;stroke:none;stroke-width:0.1"
       d="M 1274.61,800.07 V 750.1 h -49.97 v 49.97 h 49.97" />
    <path
       inkscape:connector-curvature="0"
       id="path52"
       style="fill:#000000;fill-opacity:1;fill-rule:nonzero;stroke:none;stroke-width:0.1"
       d="M 1224.64,800.07 V 750.1 h -49.97 v 49.97 h 49.97" />
    <path
       inkscape:connector-curvature="0"
       id="path54"
       style="fill:#000000;fill-opacity:1;fill-rule:nonzero;stroke:none;stroke-width:0.1"
       d="M 1124.69,800.07 V 750.1 h -49.98 v 49.97 h 49.98" />
    <path
       inkscape:connector-curvature="0"
       id="path56"
       style="fill:#000000;fill-opacity:1;fill-rule:nonzero;stroke:none;stroke-width:0.1"
       d="M 1174.67,800.07 V 750.1 h -49.98 v 49.97 h 49.98" />
    <path
       inkscape:connector-curvature="0"
       id="path58"
       style="fill:#000000;fill-opacity:1;fill-rule:nonzero;stroke:none;stroke-width:0.1"
       d="M 1024.74,800.07 V 750.1 h -49.98 v 49.97 h 49.98" />
    <path
       inkscape:connector-curvature="0"
       id="path60"
       style="fill:#000000;fill-opacity:1;fill-rule:nonzero;stroke:none;stroke-width:0.1"
       d="M 1074.71,800.07 V 750.1 h -49.97 v 49.97 h 49.97" />
    <path
       inkscape:connector-curvature="0"
       id="path62"
       style="fill:#000000;fill-opacity:1;fill-rule:nonzero;stroke:none;stroke-width:0.1"
       d="M 974.76,800.07 V 750.1 h -49.97 v 49.97 h 49.97" />
    <path
       inkscape:connector-curvature="0"
       id="path64"
       style="fill:#000000;fill-opacity:1;fill-rule:nonzero;stroke:none;stroke-width:0.1"
       d="M 824.79,800.07 V 750.1 h -49.98 v 49.97 h 49.98" />
    <path
       inkscape:connector-curvature="0"
       id="path66"
       style="fill:#000000;fill-opacity:1;fill-rule:nonzero;stroke:none;stroke-width:0.1"
       d="M 774.87,800.07 V 750.1 h -49.98 v 49.97 h 49.98" />
    <path
       inkscape:connector-curvature="0"
       id="path68"
       style="fill:#000000;fill-opacity:1;fill-rule:nonzero;stroke:none;stroke-width:0.1"
       d="M 724.89,800.07 V 750.1 h -49.97 v 49.97 h 49.97" />
    <path
       inkscape:connector-curvature="0"
       id="path70"
       style="fill:#000000;fill-opacity:1;fill-rule:nonzero;stroke:none;stroke-width:0.1"
       d="M 1324.59,800.07 V 750.1 h -49.98 v 49.97 h 49.98" />
    <path
       inkscape:connector-curvature="0"
       id="path72"
       style="fill:#000000;fill-opacity:1;fill-rule:nonzero;stroke:none;stroke-width:0.1"
       d="m 1374.61,850.04 v -49.96 h -49.97 v 49.96 h 49.97" />
    <path
       inkscape:connector-curvature="0"
       id="path74"
       style="fill:#000000;fill-opacity:1;fill-rule:nonzero;stroke:none;stroke-width:0.1"
       d="m 1424.59,900.02 v -49.97 h -49.98 v 49.97 h 49.98" />
    <path
       inkscape:connector-curvature="0"
       id="path76"
       style="fill:#000000;fill-opacity:1;fill-rule:nonzero;stroke:none;stroke-width:0.1"
       d="m 1424.59,1099.92 v -49.97 h -49.98 v 49.97 h 49.98" />
    <path
       inkscape:connector-curvature="0"
       id="path78"
       style="fill:#000000;fill-opacity:1;fill-rule:nonzero;stroke:none;stroke-width:0.1"
       d="m 1424.59,1149.89 v -49.96 h -49.98 v 49.96 h 49.98" />
    <path
       inkscape:connector-curvature="0"
       id="path80"
       style="fill:#000000;fill-opacity:1;fill-rule:nonzero;stroke:none;stroke-width:0.1"
       d="m 1424.59,949.99 v -49.96 h -49.98 v 49.96 h 49.98" />
    <path
       inkscape:connector-curvature="0"
       id="path82"
       style="fill:#000000;fill-opacity:1;fill-rule:nonzero;stroke:none;stroke-width:0.1"
       d="M 1424.59,999.97 V 950 h -49.98 v 49.97 h 49.98" />
    <path
       inkscape:connector-curvature="0"
       id="path84"
       style="fill:#000000;fill-opacity:1;fill-rule:nonzero;stroke:none;stroke-width:0.1"
       d="m 1424.59,1049.94 v -49.96 h -49.98 v 49.96 h 49.98" />
    <path
       inkscape:connector-curvature="0"
       id="path86"
       style="fill:#000000;fill-opacity:1;fill-rule:nonzero;stroke:none;stroke-width:0.1"
       d="m 1424.59,1199.87 v -49.97 h -49.98 v 49.97 h 49.98" />
    <path
       inkscape:connector-curvature="0"
       id="path88"
       style="fill:#000000;fill-opacity:1;fill-rule:nonzero;stroke:none;stroke-width:0.1"
       d="m 1374.61,1349.84 v -49.96 h -49.97 v 49.96 h 49.97" />
    <path
       inkscape:connector-curvature="0"
       id="path90"
       style="fill:#000000;fill-opacity:1;fill-rule:nonzero;stroke:none;stroke-width:0.1"
       d="m 1274.61,1399.82 v -49.97 h -49.97 v 49.97 h 49.97" />
    <path
       inkscape:connector-curvature="0"
       id="path92"
       style="fill:#000000;fill-opacity:1;fill-rule:nonzero;stroke:none;stroke-width:0.1"
       d="m 1224.64,1399.82 v -49.97 h -49.97 v 49.97 h 49.97" />
    <path
       inkscape:connector-curvature="0"
       id="path94"
       style="fill:#000000;fill-opacity:1;fill-rule:nonzero;stroke:none;stroke-width:0.1"
       d="m 1124.69,1399.82 v -49.97 h -49.98 v 49.97 h 49.98" />
    <path
       inkscape:connector-curvature="0"
       id="path96"
       style="fill:#000000;fill-opacity:1;fill-rule:nonzero;stroke:none;stroke-width:0.1"
       d="m 1174.67,1399.82 v -49.97 h -49.98 v 49.97 h 49.98" />
    <path
       inkscape:connector-curvature="0"
       id="path98"
       style="fill:#000000;fill-opacity:1;fill-rule:nonzero;stroke:none;stroke-width:0.1"
       d="m 1074.71,1399.82 v -49.97 h -49.97 v 49.97 h 49.97" />
    <path
       inkscape:connector-curvature="0"
       id="path100"
       style="fill:#000000;fill-opacity:1;fill-rule:nonzero;stroke:none;stroke-width:0.1"
       d="m 974.76,1399.82 v -49.97 h -49.97 v 49.97 h 49.97" />
    <path
       inkscape:connector-curvature="0"
       id="path102"
       style="fill:#000000;fill-opacity:1;fill-rule:nonzero;stroke:none;stroke-width:0.1"
       d="m 1024.74,1399.82 v -49.97 h -49.98 v 49.97 h 49.98" />
    <path
       inkscape:connector-curvature="0"
       id="path104"
       style="fill:#000000;fill-opacity:1;fill-rule:nonzero;stroke:none;stroke-width:0.1"
       d="m 874.81,1399.82 v -49.97 h -49.97 v 49.97 h 49.97" />
    <path
       inkscape:connector-curvature="0"
       id="path106"
       style="fill:#000000;fill-opacity:1;fill-rule:nonzero;stroke:none;stroke-width:0.1"
       d="m 924.79,1399.82 v -49.97 h -49.98 v 49.97 h 49.98" />
    <path
       inkscape:connector-curvature="0"
       id="path108"
       style="fill:#000000;fill-opacity:1;fill-rule:nonzero;stroke:none;stroke-width:0.1"
       d="m 824.84,1399.82 v -49.97 h -49.97 v 49.97 h 49.97" />
    <path
       inkscape:connector-curvature="0"
       id="path110"
       style="fill:#000000;fill-opacity:1;fill-rule:nonzero;stroke:none;stroke-width:0.1"
       d="m 774.87,1399.82 v -49.97 h -49.98 v 49.97 h 49.98" />
    <path
       inkscape:connector-curvature="0"
       id="path112"
       style="fill:#000000;fill-opacity:1;fill-rule:nonzero;stroke:none;stroke-width:0.1"
       d="m 724.89,1399.82 v -49.97 h -49.97 v 49.97 h 49.97" />
    <path
       inkscape:connector-curvature="0"
       id="path114"
       style="fill:#000000;fill-opacity:1;fill-rule:nonzero;stroke:none;stroke-width:0.1"
       d="m 1324.59,1399.82 v -49.97 h -49.98 v 49.97 h 49.98" />
    <path
       inkscape:connector-curvature="0"
       id="path116"
       style="fill:#000000;fill-opacity:1;fill-rule:nonzero;stroke:none;stroke-width:0.1"
       d="m 1175.67,1100.91 v -50.25 h -50.24 v 50.25 h 50.24" />
    <path
       inkscape:connector-curvature="0"
       id="path118"
       style="fill:#000000;fill-opacity:1;fill-rule:nonzero;stroke:none;stroke-width:0.1"
       d="m 1175.67,1151.16 v -50.24 h -50.24 v 50.24 h 50.24" />
    <path
       inkscape:connector-curvature="0"
       id="path120"
       style="fill:#000000;fill-opacity:1;fill-rule:nonzero;stroke:none;stroke-width:0.1"
       d="m 1175.67,1201.41 v -50.24 h -50.24 v 50.24 h 50.24" />
    <path
       inkscape:connector-curvature="0"
       id="path122"
       style="fill:#000000;fill-opacity:1;fill-rule:nonzero;stroke:none;stroke-width:0.1"
       d="m 1125.43,1050.65 v -50.23 h -50.26 v 50.23 h 50.26" />
    <path
       inkscape:connector-curvature="0"
       id="path124"
       style="fill:#b20000;fill-opacity:1;fill-rule:nonzero;stroke:none;stroke-width:0.1"
       d="m 1125.43,1100.91 v -50.25 h -50.26 v 50.25 h 50.26" />
    <path
       inkscape:connector-curvature="0"
       id="path126"
       style="fill:#b20000;fill-opacity:1;fill-rule:nonzero;stroke:none;stroke-width:0.1"
       d="m 1125.43,1151.16 v -50.24 h -50.26 v 50.24 h 50.26" />
    <path
       inkscape:connector-curvature="0"
       id="path128"
       style="fill:#b20000;fill-opacity:1;fill-rule:nonzero;stroke:none;stroke-width:0.1"
       d="m 1125.43,1201.41 v -50.24 h -50.26 v 50.24 h 50.26" />
    <path
       inkscape:connector-curvature="0"
       id="path130"
       style="fill:#000000;fill-opacity:1;fill-rule:nonzero;stroke:none;stroke-width:0.1"
       d="m 1125.43,1251.65 v -50.23 h -50.26 v 50.23 h 50.26" />
    <path
       inkscape:connector-curvature="0"
       id="path132"
       style="fill:#000000;fill-opacity:1;fill-rule:nonzero;stroke:none;stroke-width:0.1"
       d="m 1075.17,1000.41 v -50.24 h -50.25 v 50.24 h 50.25" />
    <path
       inkscape:connector-curvature="0"
       id="path134"
       style="fill:#b20000;fill-opacity:1;fill-rule:nonzero;stroke:none;stroke-width:0.1"
       d="m 1075.17,1050.65 v -50.23 h -50.25 v 50.23 h 50.25" />
    <path
       inkscape:connector-curvature="0"
       id="path136"
       style="fill:#fc0000;fill-opacity:1;fill-rule:nonzero;stroke:none;stroke-width:0.1"
       d="m 1075.17,1100.91 v -50.25 h -50.25 v 50.25 h 50.25" />
    <path
       inkscape:connector-curvature="0"
       id="path138"
       style="fill:#fc0000;fill-opacity:1;fill-rule:nonzero;stroke:none;stroke-width:0.1"
       d="m 1075.17,1151.16 v -50.24 h -50.25 v 50.24 h 50.25" />
    <path
       inkscape:connector-curvature="0"
       id="path140"
       style="fill:#fc0000;fill-opacity:1;fill-rule:nonzero;stroke:none;stroke-width:0.1"
       d="m 1075.17,1201.41 v -50.24 h -50.25 v 50.24 h 50.25" />
    <path
       inkscape:connector-curvature="0"
       id="path142"
       style="fill:#000000;fill-opacity:1;fill-rule:nonzero;stroke:none;stroke-width:0.1"
       d="m 1075.17,1251.65 v -50.23 h -50.25 v 50.23 h 50.25" />
    <path
       inkscape:connector-curvature="0"
       id="path144"
       style="fill:#000000;fill-opacity:1;fill-rule:nonzero;stroke:none;stroke-width:0.1"
       d="m 1024.92,950.16 v -50.25 h -50.241 v 50.25 h 50.241" />
    <path
       inkscape:connector-curvature="0"
       id="path146"
       style="fill:#b20000;fill-opacity:1;fill-rule:nonzero;stroke:none;stroke-width:0.1"
       d="m 1024.92,1000.41 v -50.24 h -50.241 v 50.24 h 50.241" />
    <path
       inkscape:connector-curvature="0"
       id="path148"
       style="fill:#fc0000;fill-opacity:1;fill-rule:nonzero;stroke:none;stroke-width:0.1"
       d="m 1024.92,1050.65 v -50.23 h -50.241 v 50.23 h 50.241" />
    <path
       inkscape:connector-curvature="0"
       id="path150"
       style="fill:#fc0000;fill-opacity:1;fill-rule:nonzero;stroke:none;stroke-width:0.1"
       d="m 1024.92,1100.91 v -50.25 h -50.241 v 50.25 h 50.241" />
    <path
       inkscape:connector-curvature="0"
       id="path152"
       style="fill:#fc0000;fill-opacity:1;fill-rule:nonzero;stroke:none;stroke-width:0.1"
       d="m 1024.92,1151.16 v -50.24 h -50.241 v 50.24 h 50.241" />
    <path
       inkscape:connector-curvature="0"
       id="path154"
       style="fill:#000000;fill-opacity:1;fill-rule:nonzero;stroke:none;stroke-width:0.1"
       d="m 1024.92,1201.41 v -50.24 h -50.241 v 50.24 h 50.241" />
    <path
       inkscape:connector-curvature="0"
       id="path156"
       style="fill:#000000;fill-opacity:1;fill-rule:nonzero;stroke:none;stroke-width:0.1"
       d="m 974.679,1000.41 v -50.24 h -50.254 v 50.24 h 50.254" />
    <path
       inkscape:connector-curvature="0"
       id="path158"
       style="fill:#fc0000;fill-opacity:1;fill-rule:nonzero;stroke:none;stroke-width:0.1"
       d="m 974.679,1050.65 v -50.23 h -50.254 v 50.23 h 50.254" />
    <path
       inkscape:connector-curvature="0"
       id="path160"
       style="fill:#fc0000;fill-opacity:1;fill-rule:nonzero;stroke:none;stroke-width:0.1"
       d="m 974.679,1100.91 v -50.25 h -50.254 v 50.25 h 50.254" />
    <path
       inkscape:connector-curvature="0"
       id="path162"
       style="fill:#fc0000;fill-opacity:1;fill-rule:nonzero;stroke:none;stroke-width:0.1"
       d="m 974.679,1151.16 v -50.24 h -50.254 v 50.24 h 50.254" />
    <path
       inkscape:connector-curvature="0"
       id="path164"
       style="fill:#fc0000;fill-opacity:1;fill-rule:nonzero;stroke:none;stroke-width:0.1"
       d="m 974.679,1201.41 v -50.24 h -50.254 v 50.24 h 50.254" />
    <path
       inkscape:connector-curvature="0"
       id="path166"
       style="fill:#000000;fill-opacity:1;fill-rule:nonzero;stroke:none;stroke-width:0.1"
       d="m 974.679,1251.65 v -50.23 h -50.254 v 50.23 h 50.254" />
    <path
       inkscape:connector-curvature="0"
       id="path168"
       style="fill:#000000;fill-opacity:1;fill-rule:nonzero;stroke:none;stroke-width:0.1"
       d="m 924.425,1050.65 v -50.23 h -50.253 v 50.23 h 50.253" />
    <path
       inkscape:connector-curvature="0"
       id="path170"
       style="fill:#fc0000;fill-opacity:1;fill-rule:nonzero;stroke:none;stroke-width:0.1"
       d="m 924.425,1100.91 v -50.25 h -50.253 v 50.25 h 50.253" />
    <path
       inkscape:connector-curvature="0"
       id="path172"
       style="fill:#fc0000;fill-opacity:1;fill-rule:nonzero;stroke:none;stroke-width:0.1"
       d="m 924.425,1151.16 v -50.24 h -50.253 v 50.24 h 50.253" />
    <path
       inkscape:connector-curvature="0"
       id="path174"
       style="fill:#ffffff;fill-opacity:1;fill-rule:nonzero;stroke:none;stroke-width:0.1"
       d="m 924.425,1201.41 v -50.24 h -50.253 v 50.24 h 50.253" />
    <path
       inkscape:connector-curvature="0"
       id="path176"
       style="fill:#000000;fill-opacity:1;fill-rule:nonzero;stroke:none;stroke-width:0.1"
       d="m 924.425,1251.65 v -50.23 h -50.253 v 50.23 h 50.253" />
    <path
       inkscape:connector-curvature="0"
       id="path178"
       style="fill:#000000;fill-opacity:1;fill-rule:nonzero;stroke:none;stroke-width:0.1"
       d="m 874.172,1100.91 v -50.25 H 823.93 v 50.25 h 50.242" />
    <path
       inkscape:connector-curvature="0"
       id="path180"
       style="fill:#000000;fill-opacity:1;fill-rule:nonzero;stroke:none;stroke-width:0.1"
       d="m 874.172,1151.16 v -50.24 H 823.93 v 50.24 h 50.242" />
    <path
       inkscape:connector-curvature="0"
       id="path182"
       style="fill:#000000;fill-opacity:1;fill-rule:nonzero;stroke:none;stroke-width:0.1"
       d="m 874.172,1201.41 v -50.24 H 823.93 v 50.24 h 50.242" />
    <path
       inkscape:connector-curvature="0"
       id="path174-2"
       style="fill:#ffffff;fill-opacity:1;fill-rule:nonzero;stroke:none;stroke-width:0.09999999"
       d="m 725.223,1350.12 v -50.24 H 674.97 v 50.24 h 50.253" />
    <path
       inkscape:connector-curvature="0"
       id="path174-8"
       style="fill:#ffffff;fill-opacity:1;fill-rule:nonzero;stroke:none;stroke-width:0.09999999"
       d="m 775.476,1350.12 v -50.24 h -50.253 v 50.24 h 50.253" />
    <path
       inkscape:connector-curvature="0"
       id="path174-2-2"
       style="fill:#ffffff;fill-opacity:1;fill-rule:nonzero;stroke:none;stroke-width:0.09999999"
       d="m 725.223,1299.88 v -50.24 H 674.97 v 50.24 h 50.253" />
    <path
       inkscape:connector-curvature="0"
       id="path174-8-1"
       style="fill:#ffffff;fill-opacity:1;fill-rule:nonzero;stroke:none;stroke-width:0.09999999"
       d="m 775.476,1299.88 v -50.24 h -50.253 v 50.24 h 50.253" />
    <path
       inkscape:connector-curvature="0"
       id="path174-2-8"
       style="fill:#ffffff;fill-opacity:1;fill-rule:nonzero;stroke:none;stroke-width:0.09999999"
       d="M 725.223,1249.64 V 1199.4 H 674.97 v 50.24 h 50.253" />
    <path
       inkscape:connector-curvature="0"
       id="path174-8-6"
       style="fill:#ffffff;fill-opacity:1;fill-rule:nonzero;stroke:none;stroke-width:0.09999999"
       d="m 775.476,1249.64 v -50.24 h -50.253 v 50.24 h 50.253" />
    <path
       inkscape:connector-curvature="0"
       id="path174-2-2-1"
       style="fill:#ffffff;fill-opacity:1;fill-rule:nonzero;stroke:none;stroke-width:0.09999999"
       d="m 725.223,1199.4 v -50.24 H 674.97 v 50.24 h 50.253" />
    <path
       inkscape:connector-curvature="0"
       id="path174-8-1-6"
       style="fill:#ffffff;fill-opacity:1;fill-rule:nonzero;stroke:none;stroke-width:0.09999999"
       d="m 775.476,1199.4 v -50.24 h -50.253 v 50.24 h 50.253" />
    <path
       inkscape:connector-curvature="0"
       id="path174-2-4"
       style="fill:#ffffff;fill-opacity:1;fill-rule:nonzero;stroke:none;stroke-width:0.09999999"
       d="m 725.223,1149.16 v -50.24 H 674.97 v 50.24 h 50.253" />
    <path
       inkscape:connector-curvature="0"
       id="path174-8-64"
       style="fill:#ffffff;fill-opacity:1;fill-rule:nonzero;stroke:none;stroke-width:0.09999999"
       d="m 775.476,1149.16 v -50.24 h -50.253 v 50.24 h 50.253" />
    <path
       inkscape:connector-curvature="0"
       id="path174-2-2-9"
       style="fill:#ffffff;fill-opacity:1;fill-rule:nonzero;stroke:none;stroke-width:0.09999999"
       d="m 725.223,1098.92 v -50.24 H 674.97 v 50.24 h 50.253" />
    <path
       inkscape:connector-curvature="0"
       id="path174-8-1-2"
       style="fill:#ffffff;fill-opacity:1;fill-rule:nonzero;stroke:none;stroke-width:0.09999999"
       d="m 775.476,1098.92 v -50.24 h -50.253 v 50.24 h 50.253" />
    <path
       style="fill:none;stroke:#000000;stroke-width:0.75px;stroke-linecap:butt;stroke-linejoin:miter;stroke-opacity:1"
       d="m 674.92,1399.82 h 649.67 l 0.05,-49.98 h 49.97 l 0.4,-49.97 h 49.98 l -0.4,-449.81996 -49.98,-0.01 v -49.95997 l -50.02,-0.01 v -49.97003 l -349.79997,-0.01 v -149.91 h -49.98001 v 49.95997 l -49.97002,0.01 v 49.98001 h -49.97003 l -0.08,49.97002 H 674.92 v 49.97003 l -49.93,0.01 v 49.97002 H 575.01 V 1299.87 h 49.98 v 49.97 l 49.98,0.28 z"
       id="path105"
       inkscape:connector-curvature="0" />
    <rect
       style="fill:url(#pattern111);stroke:none"
       width="850.73035"
       height="0"
       x="574.63501"
       y="1400.1949"
       id="rect114" />
  </g>
</svg>
