<?xml version="1.0" encoding="UTF-8" standalone="no"?>
<svg
   xmlns:dc="http://purl.org/dc/elements/1.1/"
   xmlns:cc="http://creativecommons.org/ns#"
   xmlns:rdf="http://www.w3.org/1999/02/22-rdf-syntax-ns#"
   xmlns:svg="http://www.w3.org/2000/svg"
   xmlns="http://www.w3.org/2000/svg"
   shape-rendering="crispEdges"
   viewBox="0 0 1267.3146 1133.6732"
   height="1133.6732"
   width="1267.3146"
   id="svg2"
   version="1.1">
  <metadata
     id="metadata93">
    <rdf:RDF>
      <cc:Work
         rdf:about="">
        <dc:format>image/svg+xml</dc:format>
        <dc:type
           rdf:resource="http://purl.org/dc/dcmitype/StillImage" />
        <dc:title></dc:title>
      </cc:Work>
    </rdf:RDF>
  </metadata>
  <defs
     id="defs6">
    <pattern
       id="pattern111"
       patternTransform="matrix(0.75000002,0,0,-0.75000002,574.635,1400.195)"
       height="1067.1866"
       width="1134.3071"
       patternUnits="userSpaceOnUse">
      <path
         style="fill:none;stroke:#000000;stroke-width:1px;stroke-linecap:butt;stroke-linejoin:miter;stroke-opacity:1"
         d="M 0.49999999,133.76666 67.139998,133.75333 V 67.139998 L 133.78,66.766665 133.71333,0.49999999 h 866.22665 l 0.0666,66.63999801 h 66.6267 v 66.613332 l 67.1733,0.0133 -0.5333,599.75993 h -66.64 v 66.6267 h -66.6267 l -0.0666,66.63999 H 533.50003 l 0.04,199.89335 H 466.90001 V 1000.06 l -66.62669,-10e-5 v -66.62662 l -66.6267,-0.0133 -0.10667,-66.62669 H 133.71333 v -66.6266 l -66.573332,-0.0133 v -66.61331 l -66.63999801,-0.014 z"
         id="path109" />
    </pattern>
  </defs>
  <g
     transform="matrix(1.3333333,0,0,-1.3333333,-699.67598,1933.4133)"
     id="g8">
    <path
       id="path117"
       d="m 674.92,1399.82 h 649.67 l 0.05,-49.98 h 49.97 v -49.96 l 50.38,-0.01 -0.4,-449.81996 -49.98,-0.01 v -49.95997 l -50.02,-0.01 V 750.10054 H 974.76033 l 0.03,-149.91998 h -49.98001 v 49.96995 l -49.97002,8e-5 v 49.96995 l -49.97003,0.01 -0.08,49.96995 H 674.92 l 0.05,49.98 -49.98001,8e-5 v 49.97002 h -49.98 V 1299.87 h 49.98 v 49.97 l 49.93,0.01 z"
       style="fill:#ffffff;fill-opacity:1;stroke:#000000;stroke-width:0.75px;stroke-linecap:butt;stroke-linejoin:miter;stroke-opacity:1" />
    <path
       d="m 974.79,650.14 v -49.96 h -49.98 v 49.96 h 49.98"
       style="fill:#000000;fill-opacity:1;fill-rule:nonzero;stroke:none;stroke-width:0.1"
       id="path14" />
    <path
       d="m 974.79,750.09 v -49.96 h -49.98 v 49.96 h 49.98"
       style="fill:#000000;fill-opacity:1;fill-rule:nonzero;stroke:none;stroke-width:0.1"
       id="path16" />
    <path
       d="m 974.79,700.12 v -49.97 h -49.98 v 49.97 h 49.98"
       style="fill:#000000;fill-opacity:1;fill-rule:nonzero;stroke:none;stroke-width:0.1"
       id="path18" />
    <path
       d="m 924.81,700.12 v -49.97 h -49.97 v 49.97 h 49.97"
       style="fill:#000000;fill-opacity:1;fill-rule:nonzero;stroke:none;stroke-width:0.1"
       id="path20" />
    <path
       d="m 874.84,750.09 v -49.96 h -49.97 v 49.96 h 49.97"
       style="fill:#000000;fill-opacity:1;fill-rule:nonzero;stroke:none;stroke-width:0.1"
       id="path22" />
    <path
       d="m 674.97,1349.84 v -49.96 h -49.98 v 49.96 h 49.98"
       style="fill:#000000;fill-opacity:1;fill-rule:nonzero;stroke:none;stroke-width:0.1"
       id="path24" />
    <path
       d="m 624.99,1099.92 v -49.97 h -49.98 v 49.97 h 49.98"
       style="fill:#000000;fill-opacity:1;fill-rule:nonzero;stroke:none;stroke-width:0.1"
       id="path26" />
    <path
       d="m 624.99,1049.94 v -49.96 h -49.98 v 49.96 h 49.98"
       style="fill:#000000;fill-opacity:1;fill-rule:nonzero;stroke:none;stroke-width:0.1"
       id="path28" />
    <path
       d="m 624.99,1149.89 v -49.96 h -49.98 v 49.96 h 49.98"
       style="fill:#000000;fill-opacity:1;fill-rule:nonzero;stroke:none;stroke-width:0.1"
       id="path30" />
    <path
       d="m 624.99,949.99 v -49.96 h -49.98 v 49.96 h 49.98"
       style="fill:#000000;fill-opacity:1;fill-rule:nonzero;stroke:none;stroke-width:0.1"
       id="path32" />
    <path
       d="M 624.99,999.97 V 950 h -49.98 v 49.97 h 49.98"
       style="fill:#000000;fill-opacity:1;fill-rule:nonzero;stroke:none;stroke-width:0.1"
       id="path34" />
    <path
       d="m 624.99,1199.87 v -49.97 h -49.98 v 49.97 h 49.98"
       style="fill:#000000;fill-opacity:1;fill-rule:nonzero;stroke:none;stroke-width:0.1"
       id="path36" />
    <path
       d="m 624.99,1249.89 v -49.96 h -49.98 v 49.96 h 49.98"
       style="fill:#000000;fill-opacity:1;fill-rule:nonzero;stroke:none;stroke-width:0.1"
       id="path38" />
    <path
       d="m 624.99,1299.87 v -49.97 h -49.98 v 49.97 h 49.98"
       style="fill:#000000;fill-opacity:1;fill-rule:nonzero;stroke:none;stroke-width:0.1"
       id="path40" />
    <path
       d="m 1424.99,1249.89 v -49.96 h -49.98 v 49.96 h 49.98"
       style="fill:#000000;fill-opacity:1;fill-rule:nonzero;stroke:none;stroke-width:0.1"
       id="path42" />
    <path
       d="m 1424.99,1299.87 v -49.97 h -49.98 v 49.97 h 49.98"
       style="fill:#000000;fill-opacity:1;fill-rule:nonzero;stroke:none;stroke-width:0.1"
       id="path44" />
    <path
       d="m 624.99,900.02 v -49.97 h -49.98 v 49.97 h 49.98"
       style="fill:#000000;fill-opacity:1;fill-rule:nonzero;stroke:none;stroke-width:0.1"
       id="path46" />
    <path
       d="m 674.97,850.04 v -49.96 h -49.98 v 49.96 h 49.98"
       style="fill:#000000;fill-opacity:1;fill-rule:nonzero;stroke:none;stroke-width:0.1"
       id="path48" />
    <path
       d="M 1274.61,800.07 V 750.1 h -49.97 v 49.97 h 49.97"
       style="fill:#000000;fill-opacity:1;fill-rule:nonzero;stroke:none;stroke-width:0.1"
       id="path50" />
    <path
       d="M 1224.64,800.07 V 750.1 h -49.97 v 49.97 h 49.97"
       style="fill:#000000;fill-opacity:1;fill-rule:nonzero;stroke:none;stroke-width:0.1"
       id="path52" />
    <path
       d="M 1124.69,800.07 V 750.1 h -49.98 v 49.97 h 49.98"
       style="fill:#000000;fill-opacity:1;fill-rule:nonzero;stroke:none;stroke-width:0.1"
       id="path54" />
    <path
       d="M 1174.67,800.07 V 750.1 h -49.98 v 49.97 h 49.98"
       style="fill:#000000;fill-opacity:1;fill-rule:nonzero;stroke:none;stroke-width:0.1"
       id="path56" />
    <path
       d="M 1024.74,800.07 V 750.1 h -49.98 v 49.97 h 49.98"
       style="fill:#000000;fill-opacity:1;fill-rule:nonzero;stroke:none;stroke-width:0.1"
       id="path58" />
    <path
       d="M 1074.71,800.07 V 750.1 h -49.97 v 49.97 h 49.97"
       style="fill:#000000;fill-opacity:1;fill-rule:nonzero;stroke:none;stroke-width:0.1"
       id="path60" />
    <path
       d="M 974.76,800.07 V 750.1 h -49.97 v 49.97 h 49.97"
       style="fill:#000000;fill-opacity:1;fill-rule:nonzero;stroke:none;stroke-width:0.1"
       id="path62" />
    <path
       d="M 824.79,800.07 V 750.1 h -49.98 v 49.97 h 49.98"
       style="fill:#000000;fill-opacity:1;fill-rule:nonzero;stroke:none;stroke-width:0.1"
       id="path64" />
    <path
       d="M 774.87,800.07 V 750.1 h -49.98 v 49.97 h 49.98"
       style="fill:#000000;fill-opacity:1;fill-rule:nonzero;stroke:none;stroke-width:0.1"
       id="path66" />
    <path
       d="M 724.89,800.07 V 750.1 h -49.97 v 49.97 h 49.97"
       style="fill:#000000;fill-opacity:1;fill-rule:nonzero;stroke:none;stroke-width:0.1"
       id="path68" />
    <path
       d="M 1324.59,800.07 V 750.1 h -49.98 v 49.97 h 49.98"
       style="fill:#000000;fill-opacity:1;fill-rule:nonzero;stroke:none;stroke-width:0.1"
       id="path70" />
    <path
       d="m 1374.61,850.04 v -49.96 h -49.97 v 49.96 h 49.97"
       style="fill:#000000;fill-opacity:1;fill-rule:nonzero;stroke:none;stroke-width:0.1"
       id="path72" />
    <path
       d="m 1424.59,900.02 v -49.97 h -49.98 v 49.97 h 49.98"
       style="fill:#000000;fill-opacity:1;fill-rule:nonzero;stroke:none;stroke-width:0.1"
       id="path74" />
    <path
       d="m 1424.59,1099.92 v -49.97 h -49.98 v 49.97 h 49.98"
       style="fill:#000000;fill-opacity:1;fill-rule:nonzero;stroke:none;stroke-width:0.1"
       id="path76" />
    <path
       d="m 1424.59,1149.89 v -49.96 h -49.98 v 49.96 h 49.98"
       style="fill:#000000;fill-opacity:1;fill-rule:nonzero;stroke:none;stroke-width:0.1"
       id="path78" />
    <path
       d="m 1424.59,949.99 v -49.96 h -49.98 v 49.96 h 49.98"
       style="fill:#000000;fill-opacity:1;fill-rule:nonzero;stroke:none;stroke-width:0.1"
       id="path80" />
    <path
       d="M 1424.59,999.97 V 950 h -49.98 v 49.97 h 49.98"
       style="fill:#000000;fill-opacity:1;fill-rule:nonzero;stroke:none;stroke-width:0.1"
       id="path82" />
    <path
       d="m 1424.59,1049.94 v -49.96 h -49.98 v 49.96 h 49.98"
       style="fill:#000000;fill-opacity:1;fill-rule:nonzero;stroke:none;stroke-width:0.1"
       id="path84" />
    <path
       d="m 1424.59,1199.87 v -49.97 h -49.98 v 49.97 h 49.98"
       style="fill:#000000;fill-opacity:1;fill-rule:nonzero;stroke:none;stroke-width:0.1"
       id="path86" />
    <path
       d="m 1374.61,1349.84 v -49.96 h -49.97 v 49.96 h 49.97"
       style="fill:#000000;fill-opacity:1;fill-rule:nonzero;stroke:none;stroke-width:0.1"
       id="path88" />
    <path
       d="m 1274.61,1399.82 v -49.97 h -49.97 v 49.97 h 49.97"
       style="fill:#000000;fill-opacity:1;fill-rule:nonzero;stroke:none;stroke-width:0.1"
       id="path90" />
    <path
       d="m 1224.64,1399.82 v -49.97 h -49.97 v 49.97 h 49.97"
       style="fill:#000000;fill-opacity:1;fill-rule:nonzero;stroke:none;stroke-width:0.1"
       id="path92" />
    <path
       d="m 1124.69,1399.82 v -49.97 h -49.98 v 49.97 h 49.98"
       style="fill:#000000;fill-opacity:1;fill-rule:nonzero;stroke:none;stroke-width:0.1"
       id="path94" />
    <path
       d="m 1174.67,1399.82 v -49.97 h -49.98 v 49.97 h 49.98"
       style="fill:#000000;fill-opacity:1;fill-rule:nonzero;stroke:none;stroke-width:0.1"
       id="path96" />
    <path
       d="m 1074.71,1399.82 v -49.97 h -49.97 v 49.97 h 49.97"
       style="fill:#000000;fill-opacity:1;fill-rule:nonzero;stroke:none;stroke-width:0.1"
       id="path98" />
    <path
       d="m 974.76,1399.82 v -49.97 h -49.97 v 49.97 h 49.97"
       style="fill:#000000;fill-opacity:1;fill-rule:nonzero;stroke:none;stroke-width:0.1"
       id="path100" />
    <path
       d="m 1024.74,1399.82 v -49.97 h -49.98 v 49.97 h 49.98"
       style="fill:#000000;fill-opacity:1;fill-rule:nonzero;stroke:none;stroke-width:0.1"
       id="path102" />
    <path
       d="m 874.81,1399.82 v -49.97 h -49.97 v 49.97 h 49.97"
       style="fill:#000000;fill-opacity:1;fill-rule:nonzero;stroke:none;stroke-width:0.1"
       id="path104" />
    <path
       d="m 924.79,1399.82 v -49.97 h -49.98 v 49.97 h 49.98"
       style="fill:#000000;fill-opacity:1;fill-rule:nonzero;stroke:none;stroke-width:0.1"
       id="path106" />
    <path
       d="m 824.84,1399.82 v -49.97 h -49.97 v 49.97 h 49.97"
       style="fill:#000000;fill-opacity:1;fill-rule:nonzero;stroke:none;stroke-width:0.1"
       id="path108" />
    <path
       d="m 774.87,1399.82 v -49.97 h -49.98 v 49.97 h 49.98"
       style="fill:#000000;fill-opacity:1;fill-rule:nonzero;stroke:none;stroke-width:0.1"
       id="path110" />
    <path
       d="m 724.89,1399.82 v -49.97 h -49.97 v 49.97 h 49.97"
       style="fill:#000000;fill-opacity:1;fill-rule:nonzero;stroke:none;stroke-width:0.1"
       id="path112" />
    <path
       d="m 1324.59,1399.82 v -49.97 h -49.98 v 49.97 h 49.98"
       style="fill:#000000;fill-opacity:1;fill-rule:nonzero;stroke:none;stroke-width:0.1"
       id="path114" />
    <path
       d="m 1175.67,1100.91 v -50.25 h -50.24 v 50.25 h 50.24"
       style="fill:#000000;fill-opacity:1;fill-rule:nonzero;stroke:none;stroke-width:0.1"
       id="path116" />
    <path
       d="m 1175.67,1151.16 v -50.24 h -50.24 v 50.24 h 50.24"
       style="fill:#000000;fill-opacity:1;fill-rule:nonzero;stroke:none;stroke-width:0.1"
       id="path118" />
    <path
       d="m 1175.67,1201.41 v -50.24 h -50.24 v 50.24 h 50.24"
       style="fill:#000000;fill-opacity:1;fill-rule:nonzero;stroke:none;stroke-width:0.1"
       id="path120" />
    <path
       d="m 1125.43,1050.65 v -50.23 h -50.26 v 50.23 h 50.26"
       style="fill:#000000;fill-opacity:1;fill-rule:nonzero;stroke:none;stroke-width:0.1"
       id="path122" />
    <path
       d="m 1125.43,1100.91 v -50.25 h -50.26 v 50.25 h 50.26"
       style="fill:#b20000;fill-opacity:1;fill-rule:nonzero;stroke:none;stroke-width:0.1"
       id="path124" />
    <path
       d="m 1125.43,1151.16 v -50.24 h -50.26 v 50.24 h 50.26"
       style="fill:#b20000;fill-opacity:1;fill-rule:nonzero;stroke:none;stroke-width:0.1"
       id="path126" />
    <path
       d="m 1125.43,1201.41 v -50.24 h -50.26 v 50.24 h 50.26"
       style="fill:#b20000;fill-opacity:1;fill-rule:nonzero;stroke:none;stroke-width:0.1"
       id="path128" />
    <path
       d="m 1125.43,1251.65 v -50.23 h -50.26 v 50.23 h 50.26"
       style="fill:#000000;fill-opacity:1;fill-rule:nonzero;stroke:none;stroke-width:0.1"
       id="path130" />
    <path
       d="m 1075.17,1000.41 v -50.24 h -50.25 v 50.24 h 50.25"
       style="fill:#000000;fill-opacity:1;fill-rule:nonzero;stroke:none;stroke-width:0.1"
       id="path132" />
    <path
       d="m 1075.17,1050.65 v -50.23 h -50.25 v 50.23 h 50.25"
       style="fill:#b20000;fill-opacity:1;fill-rule:nonzero;stroke:none;stroke-width:0.1"
       id="path134" />
    <path
       d="m 1075.17,1100.91 v -50.25 h -50.25 v 50.25 h 50.25"
       style="fill:#fc0000;fill-opacity:1;fill-rule:nonzero;stroke:none;stroke-width:0.1"
       id="path136" />
    <path
       d="m 1075.17,1151.16 v -50.24 h -50.25 v 50.24 h 50.25"
       style="fill:#fc0000;fill-opacity:1;fill-rule:nonzero;stroke:none;stroke-width:0.1"
       id="path138" />
    <path
       d="m 1075.17,1201.41 v -50.24 h -50.25 v 50.24 h 50.25"
       style="fill:#fc0000;fill-opacity:1;fill-rule:nonzero;stroke:none;stroke-width:0.1"
       id="path140" />
    <path
       d="m 1075.17,1251.65 v -50.23 h -50.25 v 50.23 h 50.25"
       style="fill:#000000;fill-opacity:1;fill-rule:nonzero;stroke:none;stroke-width:0.1"
       id="path142" />
    <path
       d="m 1024.92,950.16 v -50.25 h -50.241 v 50.25 h 50.241"
       style="fill:#000000;fill-opacity:1;fill-rule:nonzero;stroke:none;stroke-width:0.1"
       id="path144" />
    <path
       d="m 1024.92,1000.41 v -50.24 h -50.241 v 50.24 h 50.241"
       style="fill:#b20000;fill-opacity:1;fill-rule:nonzero;stroke:none;stroke-width:0.1"
       id="path146" />
    <path
       d="m 1024.92,1050.65 v -50.23 h -50.241 v 50.23 h 50.241"
       style="fill:#fc0000;fill-opacity:1;fill-rule:nonzero;stroke:none;stroke-width:0.1"
       id="path148" />
    <path
       d="m 1024.92,1100.91 v -50.25 h -50.241 v 50.25 h 50.241"
       style="fill:#fc0000;fill-opacity:1;fill-rule:nonzero;stroke:none;stroke-width:0.1"
       id="path150" />
    <path
       d="m 1024.92,1151.16 v -50.24 h -50.241 v 50.24 h 50.241"
       style="fill:#fc0000;fill-opacity:1;fill-rule:nonzero;stroke:none;stroke-width:0.1"
       id="path152" />
    <path
       d="m 1024.92,1201.41 v -50.24 h -50.241 v 50.24 h 50.241"
       style="fill:#000000;fill-opacity:1;fill-rule:nonzero;stroke:none;stroke-width:0.1"
       id="path154" />
    <path
       d="m 974.679,1000.41 v -50.24 h -50.254 v 50.24 h 50.254"
       style="fill:#000000;fill-opacity:1;fill-rule:nonzero;stroke:none;stroke-width:0.1"
       id="path156" />
    <path
       d="m 974.679,1050.65 v -50.23 h -50.254 v 50.23 h 50.254"
       style="fill:#fc0000;fill-opacity:1;fill-rule:nonzero;stroke:none;stroke-width:0.1"
       id="path158" />
    <path
       d="m 974.679,1100.91 v -50.25 h -50.254 v 50.25 h 50.254"
       style="fill:#fc0000;fill-opacity:1;fill-rule:nonzero;stroke:none;stroke-width:0.1"
       id="path160" />
    <path
       d="m 974.679,1151.16 v -50.24 h -50.254 v 50.24 h 50.254"
       style="fill:#fc0000;fill-opacity:1;fill-rule:nonzero;stroke:none;stroke-width:0.1"
       id="path162" />
    <path
       d="m 974.679,1201.41 v -50.24 h -50.254 v 50.24 h 50.254"
       style="fill:#fc0000;fill-opacity:1;fill-rule:nonzero;stroke:none;stroke-width:0.1"
       id="path164" />
    <path
       d="m 974.679,1251.65 v -50.23 h -50.254 v 50.23 h 50.254"
       style="fill:#000000;fill-opacity:1;fill-rule:nonzero;stroke:none;stroke-width:0.1"
       id="path166" />
    <path
       d="m 924.425,1050.65 v -50.23 h -50.253 v 50.23 h 50.253"
       style="fill:#000000;fill-opacity:1;fill-rule:nonzero;stroke:none;stroke-width:0.1"
       id="path168" />
    <path
       d="m 924.425,1100.91 v -50.25 h -50.253 v 50.25 h 50.253"
       style="fill:#fc0000;fill-opacity:1;fill-rule:nonzero;stroke:none;stroke-width:0.1"
       id="path170" />
    <path
       d="m 924.425,1151.16 v -50.24 h -50.253 v 50.24 h 50.253"
       style="fill:#fc0000;fill-opacity:1;fill-rule:nonzero;stroke:none;stroke-width:0.1"
       id="path172" />
    <path
       d="m 924.425,1201.41 v -50.24 h -50.253 v 50.24 h 50.253"
       style="fill:#ffffff;fill-opacity:1;fill-rule:nonzero;stroke:none;stroke-width:0.1"
       id="path174" />
    <path
       d="m 924.425,1251.65 v -50.23 h -50.253 v 50.23 h 50.253"
       style="fill:#000000;fill-opacity:1;fill-rule:nonzero;stroke:none;stroke-width:0.1"
       id="path176" />
    <path
       d="m 874.172,1100.91 v -50.25 H 823.93 v 50.25 h 50.242"
       style="fill:#000000;fill-opacity:1;fill-rule:nonzero;stroke:none;stroke-width:0.1"
       id="path178" />
    <path
       d="m 874.172,1151.16 v -50.24 H 823.93 v 50.24 h 50.242"
       style="fill:#000000;fill-opacity:1;fill-rule:nonzero;stroke:none;stroke-width:0.1"
       id="path180" />
    <path
       d="m 874.172,1201.41 v -50.24 H 823.93 v 50.24 h 50.242"
       style="fill:#000000;fill-opacity:1;fill-rule:nonzero;stroke:none;stroke-width:0.1"
       id="path182" />
    <path
       d="m 725.223,1350.12 v -50.24 H 674.97 v 50.24 h 50.253"
       style="fill:#ffffff;fill-opacity:1;fill-rule:nonzero;stroke:none;stroke-width:0.09999999"
       id="path174-2" />
    <path
       d="m 775.476,1350.12 v -50.24 h -50.253 v 50.24 h 50.253"
       style="fill:#ffffff;fill-opacity:1;fill-rule:nonzero;stroke:none;stroke-width:0.09999999"
       id="path174-8" />
    <path
       d="m 725.223,1299.88 v -50.24 H 674.97 v 50.24 h 50.253"
       style="fill:#ffffff;fill-opacity:1;fill-rule:nonzero;stroke:none;stroke-width:0.09999999"
       id="path174-2-2" />
    <path
       d="m 775.476,1299.88 v -50.24 h -50.253 v 50.24 h 50.253"
       style="fill:#ffffff;fill-opacity:1;fill-rule:nonzero;stroke:none;stroke-width:0.09999999"
       id="path174-8-1" />
    <path
       d="M 725.223,1249.64 V 1199.4 H 674.97 v 50.24 h 50.253"
       style="fill:#ffffff;fill-opacity:1;fill-rule:nonzero;stroke:none;stroke-width:0.09999999"
       id="path174-2-8" />
    <path
       d="m 775.476,1249.64 v -50.24 h -50.253 v 50.24 h 50.253"
       style="fill:#ffffff;fill-opacity:1;fill-rule:nonzero;stroke:none;stroke-width:0.09999999"
       id="path174-8-6" />
    <path
       d="m 725.223,1199.4 v -50.24 H 674.97 v 50.24 h 50.253"
       style="fill:#ffffff;fill-opacity:1;fill-rule:nonzero;stroke:none;stroke-width:0.09999999"
       id="path174-2-2-1" />
    <path
       d="m 775.476,1199.4 v -50.24 h -50.253 v 50.24 h 50.253"
       style="fill:#ffffff;fill-opacity:1;fill-rule:nonzero;stroke:none;stroke-width:0.09999999"
       id="path174-8-1-6" />
    <path
       d="m 725.223,1149.16 v -50.24 H 674.97 v 50.24 h 50.253"
       style="fill:#ffffff;fill-opacity:1;fill-rule:nonzero;stroke:none;stroke-width:0.09999999"
       id="path174-2-4" />
    <path
       d="m 775.476,1149.16 v -50.24 h -50.253 v 50.24 h 50.253"
       style="fill:#ffffff;fill-opacity:1;fill-rule:nonzero;stroke:none;stroke-width:0.09999999"
       id="path174-8-64" />
    <path
       d="m 725.223,1098.92 v -50.24 H 674.97 v 50.24 h 50.253"
       style="fill:#ffffff;fill-opacity:1;fill-rule:nonzero;stroke:none;stroke-width:0.09999999"
       id="path174-2-2-9" />
    <path
       d="m 775.476,1098.92 v -50.24 h -50.253 v 50.24 h 50.253"
       style="fill:#ffffff;fill-opacity:1;fill-rule:nonzero;stroke:none;stroke-width:0.09999999"
       id="path174-8-1-2" />
    <path
       id="path105"
       d="m 674.92,1399.82 h 649.67 l 0.05,-49.98 h 49.97 l 0.4,-49.97 h 49.98 l -0.4,-449.81996 -49.98,-0.01 v -49.95997 l -50.02,-0.01 v -49.97003 l -349.79997,-0.01 v -149.91 h -49.98001 v 49.95997 l -49.97002,0.01 v 49.98001 h -49.97003 l -0.08,49.97002 H 674.92 v 49.97003 l -49.93,0.01 v 49.97002 H 575.01 V 1299.87 h 49.98 v 49.97 l 49.98,0.28 z"
       style="fill:none;stroke:#000000;stroke-width:0.75px;stroke-linecap:butt;stroke-linejoin:miter;stroke-opacity:1" />
    <rect
       id="rect114"
       y="1400.1949"
       x="574.63501"
       height="0"
       width="850.73035"
       style="fill:url(#pattern111);stroke:none" />
  </g>
</svg>
